0
SECTION
2
HEADER
9
$INSUNITS
70
4
9
$ACADVER
1
AC1014
9
$HANDSEED
5
FFFF
0
ENDSEC
0
SECTION
2
TABLES
0
TABLE
2
VPORT
5
8
100
AcDbSymbolTable
0
ENDTAB
0
TABLE
2
LTYPE
5
5
100
AcDbSymbolTable
0
LTYPE
5
14
100
AcDbSymbolTableRecord
100
AcDbLinetypeTableRecord
2
BYBLOCK
70
0
0
LTYPE
5
15
100
AcDbSymbolTableRecord
100
AcDbLinetypeTableRecord
2
BYLAYER
70
0
0
ENDTAB
0
TABLE
2
LAYER
5
2
100
AcDbSymbolTable
70
2
0
LAYER
5
50
100
AcDbSymbolTableRecord
100
AcDbLayerTableRecord
2
0
70
0
6
CONTINUOUS
0
ENDTAB
0
TABLE
2
STYLE
5
3
100
AcDbSymbolTable
70
1
0
STYLE
5
11
100
AcDbSymbolTableRecord
100
AcDbTextStyleTableRecord
2
STANDARD
70
0
0
ENDTAB
0
TABLE
2
VIEW
5
6
100
AcDbSymbolTable
70
0
0
ENDTAB
0
TABLE
2
UCS
5
7
100
AcDbSymbolTable
70
0
0
ENDTAB
0
TABLE
2
APPID
5
9
100
AcDbSymbolTable
70
2
0
APPID
5
12
100
AcDbSymbolTableRecord
100
AcDbRegAppTableRecord
2
ACAD
70
0
0
ENDTAB
0
TABLE
2
DIMSTYLE
5
A
100
AcDbSymbolTable
70
1
0
ENDTAB
0
TABLE
2
BLOCK_RECORD
5
1
100
AcDbSymbolTable
70
1
0
BLOCK_RECORD
5
1F
100
AcDbSymbolTableRecord
100
AcDbBlockTableRecord
2
*MODEL_SPACE
0
BLOCK_RECORD
5
1B
100
AcDbSymbolTableRecord
100
AcDbBlockTableRecord
2
*PAPER_SPACE
0
ENDTAB
0
ENDSEC
0
SECTION
2
BLOCKS
0
BLOCK
5
20
100
AcDbEntity
100
AcDbBlockBegin
2
*MODEL_SPACE
0
ENDBLK
5
21
100
AcDbEntity
100
AcDbBlockEnd
0
BLOCK
5
1C
100
AcDbEntity
100
AcDbBlockBegin
2
*PAPER_SPACE
0
ENDBLK
5
1D
100
AcDbEntity
100
AcDbBlockEnd
0
ENDSEC
0
SECTION
2
ENTITIES
0
LWPOLYLINE
5
100
100
AcDbEntity
8
0
100
AcDbPolyline
90
23
70
1
43
0.0
10
20.203306690805398
20
-16.875000004090207
42
0.28491504625848085
10
26.25
20
-20.625
10
37.931624019891849
20
-20.624999994524728
42
0.31241990799084768
10
44.25
20
-25.000000000000004
10
55.931624019891863
20
-24.999999994524728
42
0.31241990799084757
10
62.250000000000007
20
-29.375
10
81.75
20
-29.375
42
0.41421356237309509
10
88.500000000000014
20
-22.625
10
88.500000000000014
20
57.625
42
0.41421356237309509
10
81.75
20
64.375000000000014
10
70.068375980108144
20
64.374999994524728
42
0.31241990799084757
10
63.75
20
68.75
10
52.068375980108144
20
68.749999994524728
42
0.31241990799084757
10
45.75
20
73.125
10
26.25
20
73.125
42
0.31241990806702236
10
19.931624019232551
20
68.749999992770725
10
8.2500000000000018
20
68.75
42
0.41421356237309509
10
1.5000000000000024
20
62
10
1.5000000000000002
20
51.25
10
-9.75
20
51.25
42
0.41421356237309509
10
-16.5
20
44.500000000000014
10
-16.5
20
-10.124999999999996
42
0.41421356237309515
10
-9.75
20
-16.875
0
LWPOLYLINE
5
101
100
AcDbEntity
8
0
100
AcDbPolyline
90
4
70
1
43
0.0
10
47
20
-1.7500000000000002
10
47
20
-15.750000000000002
10
61.000000000000007
20
-15.750000000000002
10
61.000000000000007
20
-1.7500000000000004
0
LWPOLYLINE
5
102
100
AcDbEntity
8
0
100
AcDbPolyline
90
4
70
1
43
0.0
10
65
20
-6.125
10
65
20
-20.125
10
79
20
-20.125
10
79
20
-6.125
0
LWPOLYLINE
5
103
100
AcDbEntity
8
0
100
AcDbPolyline
90
4
70
1
43
0.0
10
29.000000000000004
20
2.625
10
29.000000000000004
20
-11.375
10
43
20
-11.375
10
43
20
2.6249999999999996
0
LWPOLYLINE
5
104
100
AcDbEntity
8
0
100
AcDbPolyline
90
4
70
1
43
0.0
10
47
20
42
10
47
20
28.000000000000004
10
61.000000000000007
20
28.000000000000004
10
61.000000000000007
20
42
0
LWPOLYLINE
5
105
100
AcDbEntity
8
0
100
AcDbPolyline
90
4
70
1
43
0.0
10
-7.0000000000000009
20
7.0000000000000009
10
-7.0000000000000009
20
-7.0000000000000009
10
7.0000000000000009
20
-7.0000000000000009
10
7.0000000000000009
20
7.0000000000000009
0
LWPOLYLINE
5
106
100
AcDbEntity
8
0
100
AcDbPolyline
90
4
70
1
43
0.0
10
29.000000000000004
20
28.875
10
29.000000000000004
20
14.875
10
43
20
14.875
10
43
20
28.875
0
LWPOLYLINE
5
107
100
AcDbEntity
8
0
100
AcDbPolyline
90
4
70
1
43
0.0
10
47
20
59.5
10
47
20
45.5
10
61.000000000000007
20
45.5
10
61.000000000000007
20
59.5
0
LWPOLYLINE
5
108
100
AcDbEntity
8
0
100
AcDbPolyline
90
4
70
1
43
0.0
10
65
20
37.625
10
65
20
23.625000000000004
10
79
20
23.625000000000004
10
79
20
37.625
0
LWPOLYLINE
5
109
100
AcDbEntity
8
0
100
AcDbPolyline
90
4
70
1
43
0.0
10
-7.0000000000000009
20
42
10
-7.0000000000000009
20
28.000000000000004
10
7.0000000000000009
20
28.000000000000004
10
7.0000000000000009
20
42
0
LWPOLYLINE
5
110
100
AcDbEntity
8
0
100
AcDbPolyline
90
4
70
1
43
0.0
10
11
20
24.5
10
11
20
10.5
10
25
20
10.5
10
25
20
24.5
0
LWPOLYLINE
5
111
100
AcDbEntity
8
0
100
AcDbPolyline
90
4
70
1
43
0.0
10
47
20
24.5
10
47
20
10.5
10
61.000000000000007
20
10.5
10
61.000000000000007
20
24.5
0
LWPOLYLINE
5
112
100
AcDbEntity
8
0
100
AcDbPolyline
90
4
70
1
43
0.0
10
-7.0000000000000009
20
24.5
10
-7.0000000000000009
20
10.5
10
7.0000000000000009
20
10.5
10
7.0000000000000009
20
24.5
0
LWPOLYLINE
5
113
100
AcDbEntity
8
0
100
AcDbPolyline
90
4
70
1
43
0.0
10
65
20
55.125
10
65
20
41.125
10
79
20
41.125
10
79
20
55.125
0
LWPOLYLINE
5
114
100
AcDbEntity
8
0
100
AcDbPolyline
90
4
70
1
43
0.0
10
29.000000000000004
20
46.375
10
29.000000000000004
20
32.375
10
43
20
32.375
10
43
20
46.375
0
LWPOLYLINE
5
115
100
AcDbEntity
8
0
100
AcDbPolyline
90
4
70
1
43
0.0
10
11
20
42
10
11
20
28.000000000000004
10
25
20
28.000000000000004
10
25
20
42
0
LWPOLYLINE
5
116
100
AcDbEntity
8
0
100
AcDbPolyline
90
4
70
1
43
0.0
10
11
20
59.5
10
11
20
45.5
10
25
20
45.5
10
25
20
59.5
0
LWPOLYLINE
5
117
100
AcDbEntity
8
0
100
AcDbPolyline
90
4
70
1
43
0.0
10
29.000000000000004
20
63.875
10
29.000000000000004
20
49.875000000000007
10
43
20
49.875000000000007
10
43
20
63.875
0
LWPOLYLINE
5
118
100
AcDbEntity
8
0
100
AcDbPolyline
90
4
70
1
43
0.0
10
65
20
20.125
10
65
20
6.125
10
79
20
6.125
10
79
20
20.125
0
LWPOLYLINE
5
119
100
AcDbEntity
8
0
100
AcDbPolyline
90
23
70
1
43
0.0
10
81.75
20
-26.649999999999999
42
0.41421356237309509
10
85.775000000000006
20
-22.625
10
85.775000000000006
20
57.625
42
0.41421356237309509
10
81.75
20
61.650000000000006
10
67.759753732513985
20
61.649999993442663
42
0.4399508581218558
10
63.75
20
66.025000000000006
10
49.759753732513985
20
66.024999993442663
42
0.4399508581218558
10
45.75
20
70.400000000000006
10
26.25
20
70.400000000000006
42
0.43995085827817731
10
22.240246267669374
20
66.024999991342014
10
8.2499999983136121
20
66.025000000000006
42
0.41421356225037903
10
4.2250000000000023
20
62
10
4.2249999999999996
20
48.524999999999999
10
-9.75
20
48.524999999999999
42
0.41421356237309515
10
-13.774999999999999
20
44.500000000000014
10
-13.775000000000002
20
-10.124999999999996
42
0.41421356237309515
10
-9.75
20
-14.15
10
22.23440539924685
20
-14.150000004367557
42
0.39432550446093384
10
26.249999999999996
20
-17.900000000000002
10
40.240246267486015
20
-17.899999993442655
42
0.43995085812185603
10
44.25
20
-22.274999999999999
10
58.240246267486022
20
-22.274999993442655
42
0.43995085812185608
10
62.250000000000007
20
-26.649999999999999
0
LWPOLYLINE
5
120
100
AcDbEntity
8
0
100
AcDbPolyline
90
29
70
1
43
0.0
10
83.050000000000011
20
57.625
42
0.41421356237309509
10
81.75
20
58.925000000000011
10
70.068375982662602
20
58.924999994524725
42
-0.31241990811946235
10
64.966872410983783
20
62.457407406352914
42
0.31241990799084662
10
63.75
20
63.299999999999997
10
52.068375982662609
20
63.299999994524725
42
-0.31241990811946213
10
46.966872410983797
20
66.832407406352914
42
0.31241990799084723
10
45.75
20
67.674999999999997
10
26.25
20
67.674999999999997
42
0.31241990806702219
10
25.033127588889236
20
66.832407406015108
42
-0.31241990823683807
10
19.931624015859772
20
63.299999992770722
10
8.2499999966272224
20
63.299999999999997
42
0.41421356161319967
10
6.9500000000000028
20
62
10
6.9499999999999993
20
45.799999999999997
10
-9.75
20
45.799999999999997
42
0.41421356237309531
10
-11.050000000000001
20
44.500000000000014
10
-11.050000000000001
20
-10.124999999999996
42
0.41421356237309553
10
-9.75
20
-11.425000000000001
10
20.203306691549614
20
-11.425000004090206
42
-0.28491504622157132
10
25.08545165896993
20
-14.452777778565522
42
0.28491504625848002
10
26.249999999999996
20
-15.175000000000001
10
37.931624017337391
20
-15.174999994524725
42
-0.31241990811946191
10
43.033127589016203
20
-18.70740740635291
42
0.31241990799084768
10
44.25
20
-19.550000000000004
10
55.931624017337398
20
-19.549999994524725
42
-0.31241990811946196
10
61.033127589016217
20
-23.08240740635291
42
0.31241990799084823
10
62.250000000000007
20
-23.925000000000001
10
81.75
20
-23.925000000000001
42
0.41421356237309509
10
83.049999999999997
20
-22.625
0
CIRCLE
5
121
100
AcDbEntity
8
0
100
AcDbCircle
10
85.775000000000006
20
50.629876866256993
30
0
40
1.625
210
0
220
0
230
1
0
CIRCLE
5
122
100
AcDbEntity
8
0
100
AcDbCircle
10
85.775000000000006
20
17.5
30
0
40
1.625
210
0
220
0
230
1
0
CIRCLE
5
123
100
AcDbEntity
8
0
100
AcDbCircle
10
85.775000000000006
20
-15.629876866256991
30
0
40
1.625
210
0
220
0
230
1
0
CIRCLE
5
124
100
AcDbEntity
8
0
100
AcDbCircle
10
74.754876866256993
20
61.649999996721334
30
0
40
1.625
210
0
220
0
230
1
0
CIRCLE
5
125
100
AcDbEntity
8
0
100
AcDbCircle
10
56.754876866256993
20
66.024999996721334
30
0
40
1.625
210
0
220
0
230
1
0
CIRCLE
5
126
100
AcDbEntity
8
0
100
AcDbCircle
10
36
20
70.400000000000006
30
0
40
1.625
210
0
220
0
230
1
0
CIRCLE
5
127
100
AcDbEntity
8
0
100
AcDbCircle
10
15.245123132991495
20
66.02499999567101
30
0
40
1.625
210
0
220
0
230
1
0
CIRCLE
5
128
100
AcDbEntity
8
0
100
AcDbCircle
10
-2.7625000000000002
20
48.524999999999999
30
0
40
1.625
210
0
220
0
230
1
0
CIRCLE
5
129
100
AcDbEntity
8
0
100
AcDbCircle
10
-13.774999999999999
20
37.512500000000003
30
0
40
1.625
210
0
220
0
230
1
0
CIRCLE
5
130
100
AcDbEntity
8
0
100
AcDbCircle
10
-13.774999999999999
20
17.187500000000004
30
0
40
1.625
210
0
220
0
230
1
0
ENDSEC
0
SECTION
2
OBJECTS
0
DICTIONARY
5
C
100
AcDbDictionary
3
ACAD_GROUP
350
D
3
ACAD_MLINESTYLE
350
17
0
DICTIONARY
5
D
100
AcDbDictionary
0
DICTIONARY
5
1A
330
C
100
AcDbDictionary
0
DICTIONARY
5
17
100
AcDbDictionary
0
ENDSEC
0
EOF
