0
SECTION
2
HEADER
9
$INSUNITS
70
4
0
ENDSEC
0
SECTION
2
TABLES
0
TABLE
2
LTYPE
0
LTYPE
72
65
70
64
2
CONTINUOUS
3
______
73
0
40
0
0
ENDTAB
0
TABLE
2
LAYER
0
ENDTAB
0
ENDSEC
0
SECTION
2
ENTITIES
0
LINE
8
0
10
-8.75
20
-8.5
11
8.75
21
-8.5
0
LINE
8
0
10
8.75
20
-8.5
11
8.75
21
8.5
0
LINE
8
0
10
8.75
20
8.5
11
-8.75
21
8.5
0
LINE
8
0
10
-8.75
20
8.5
11
-8.75
21
-8.5
0
LINE
8
0
10
-8.75
20
9
11
8.75
21
9
0
LINE
8
0
10
8.75
20
9
11
8.75
21
26
0
LINE
8
0
10
8.75
20
26
11
-8.75
21
26
0
LINE
8
0
10
-8.75
20
26
11
-8.75
21
9
0
LINE
8
0
10
-8.75
20
26.5
11
8.75
21
26.5
0
LINE
8
0
10
8.75
20
26.5
11
8.75
21
43.5
0
LINE
8
0
10
8.75
20
43.5
11
-8.75
21
43.5
0
LINE
8
0
10
-8.75
20
43.5
11
-8.75
21
26.5
0
LINE
8
0
10
9.25
20
9
11
26.75
21
9
0
LINE
8
0
10
26.75
20
9
11
26.75
21
26
0
LINE
8
0
10
26.75
20
26
11
9.25
21
26
0
LINE
8
0
10
9.25
20
26
11
9.25
21
9
0
LINE
8
0
10
9.25
20
26.5
11
26.75
21
26.5
0
LINE
8
0
10
26.75
20
26.5
11
26.75
21
43.5
0
LINE
8
0
10
26.75
20
43.5
11
9.25
21
43.5
0
LINE
8
0
10
9.25
20
43.5
11
9.25
21
26.5
0
LINE
8
0
10
9.25
20
44
11
26.75
21
44
0
LINE
8
0
10
26.75
20
44
11
26.75
21
61
0
LINE
8
0
10
26.75
20
61
11
9.25
21
61
0
LINE
8
0
10
9.25
20
61
11
9.25
21
44
0
LINE
8
0
10
27.25
20
13.375
11
44.75
21
13.375
0
LINE
8
0
10
44.75
20
13.375
11
44.75
21
30.375
0
LINE
8
0
10
44.75
20
30.375
11
27.25
21
30.375
0
LINE
8
0
10
27.25
20
30.375
11
27.25
21
13.375
0
LINE
8
0
10
27.25
20
30.875
11
44.75
21
30.875
0
LINE
8
0
10
44.75
20
30.875
11
44.75
21
47.875
0
LINE
8
0
10
44.75
20
47.875
11
27.25
21
47.875
0
LINE
8
0
10
27.25
20
47.875
11
27.25
21
30.875
0
LINE
8
0
10
27.25
20
48.375
11
44.75
21
48.375
0
LINE
8
0
10
44.75
20
48.375
11
44.75
21
65.375
0
LINE
8
0
10
44.75
20
65.375
11
27.25
21
65.375
0
LINE
8
0
10
27.25
20
65.375
11
27.25
21
48.375
0
LINE
8
0
10
45.25
20
9
11
62.75
21
9
0
LINE
8
0
10
62.75
20
9
11
62.75
21
26
0
LINE
8
0
10
62.75
20
26
11
45.25
21
26
0
LINE
8
0
10
45.25
20
26
11
45.25
21
9
0
LINE
8
0
10
45.25
20
26.5
11
62.75
21
26.5
0
LINE
8
0
10
62.75
20
26.5
11
62.75
21
43.5
0
LINE
8
0
10
62.75
20
43.5
11
45.25
21
43.5
0
LINE
8
0
10
45.25
20
43.5
11
45.25
21
26.5
0
LINE
8
0
10
45.25
20
44
11
62.75
21
44
0
LINE
8
0
10
62.75
20
44
11
62.75
21
61
0
LINE
8
0
10
62.75
20
61
11
45.25
21
61
0
LINE
8
0
10
45.25
20
61
11
45.25
21
44
0
LINE
8
0
10
63.25
20
4.625
11
80.75
21
4.625
0
LINE
8
0
10
80.75
20
4.625
11
80.75
21
21.625
0
LINE
8
0
10
80.75
20
21.625
11
63.25
21
21.625
0
LINE
8
0
10
63.25
20
21.625
11
63.25
21
4.625
0
LINE
8
0
10
63.25
20
22.125
11
80.75
21
22.125
0
LINE
8
0
10
80.75
20
22.125
11
80.75
21
39.125
0
LINE
8
0
10
80.75
20
39.125
11
63.25
21
39.125
0
LINE
8
0
10
63.25
20
39.125
11
63.25
21
22.125
0
LINE
8
0
10
63.25
20
39.625
11
80.75
21
39.625
0
LINE
8
0
10
80.75
20
39.625
11
80.75
21
56.625
0
LINE
8
0
10
80.75
20
56.625
11
63.25
21
56.625
0
LINE
8
0
10
63.25
20
56.625
11
63.25
21
39.625
0
LINE
8
0
10
27.25
20
-12.875
11
44.75
21
-12.875
0
LINE
8
0
10
44.75
20
-12.875
11
44.75
21
4.125
0
LINE
8
0
10
44.75
20
4.125
11
27.25
21
4.125
0
LINE
8
0
10
27.25
20
4.125
11
27.25
21
-12.875
0
LINE
8
0
10
45.25
20
-17.25
11
62.75
21
-17.25
0
LINE
8
0
10
62.75
20
-17.25
11
62.75
21
-0.25
0
LINE
8
0
10
62.75
20
-0.25
11
45.25
21
-0.25
0
LINE
8
0
10
45.25
20
-0.25
11
45.25
21
-17.25
0
LINE
8
0
10
63.25
20
-21.625
11
80.75
21
-21.625
0
LINE
8
0
10
80.75
20
-21.625
11
80.75
21
-4.625
0
LINE
8
0
10
80.75
20
-4.625
11
63.25
21
-4.625
0
LINE
8
0
10
63.25
20
-4.625
11
63.25
21
-21.625
0
ENDSEC
0
EOF