0
SECTION
2
HEADER
9
$INSUNITS
70
4
0
ENDSEC
0
SECTION
2
TABLES
0
TABLE
2
LTYPE
0
LTYPE
72
65
70
64
2
CONTINUOUS
3
______
73
0
40
0
0
ENDTAB
0
TABLE
2
LAYER
0
ENDTAB
0
ENDSEC
0
SECTION
2
ENTITIES
0
LINE
8
0
10
-9.75
20
-10.125
11
-9.75
21
44.5
0
LINE
8
0
10
8.25
20
44.5
11
-9.75
21
44.5
0
LINE
8
0
10
26.25
20
62
11
8.25
21
62
0
LINE
8
0
10
8.25
20
62
11
8.25
21
44.5
0
LINE
8
0
10
45.75
20
62
11
45.75
21
66.375
0
LINE
8
0
10
45.75
20
66.375
11
26.25
21
66.375
0
LINE
8
0
10
26.25
20
66.375
11
26.25
21
62
0
LINE
8
0
10
63.75
20
57.625
11
63.75
21
62
0
LINE
8
0
10
63.75
20
62
11
45.75
21
62
0
LINE
8
0
10
81.75
20
-22.625
11
81.75
21
57.625
0
LINE
8
0
10
81.75
20
57.625
11
63.75
21
57.625
0
LINE
8
0
10
26.25
20
-13.875
11
44.25
21
-13.875
0
LINE
8
0
10
26.25
20
-10.125
11
26.25
21
-13.875
0
LINE
8
0
10
44.25
20
-18.25
11
62.25
21
-18.25
0
LINE
8
0
10
44.25
20
-13.875
11
44.25
21
-18.25
0
LINE
8
0
10
62.25
20
-22.625
11
81.75
21
-22.625
0
LINE
8
0
10
62.25
20
-18.25
11
62.25
21
-22.625
0
LINE
8
0
10
-9.75
20
-10.125
11
26.25
21
-10.125
0
LINE
8
0
10
-7
20
-7
11
7
21
-7
0
LINE
8
0
10
7
20
-7
11
7
21
7
0
LINE
8
0
10
7
20
7
11
-7
21
7
0
LINE
8
0
10
-7
20
7
11
-7
21
-7
0
LINE
8
0
10
-7
20
10.5
11
7
21
10.5
0
LINE
8
0
10
7
20
10.5
11
7
21
24.5
0
LINE
8
0
10
7
20
24.5
11
-7
21
24.5
0
LINE
8
0
10
-7
20
24.5
11
-7
21
10.5
0
LINE
8
0
10
-7
20
28
11
7
21
28
0
LINE
8
0
10
7
20
28
11
7
21
42
0
LINE
8
0
10
7
20
42
11
-7
21
42
0
LINE
8
0
10
-7
20
42
11
-7
21
28
0
LINE
8
0
10
11
20
10.5
11
25
21
10.5
0
LINE
8
0
10
25
20
10.5
11
25
21
24.5
0
LINE
8
0
10
25
20
24.5
11
11
21
24.5
0
LINE
8
0
10
11
20
24.5
11
11
21
10.5
0
LINE
8
0
10
11
20
28
11
25
21
28
0
LINE
8
0
10
25
20
28
11
25
21
42
0
LINE
8
0
10
25
20
42
11
11
21
42
0
LINE
8
0
10
11
20
42
11
11
21
28
0
LINE
8
0
10
11
20
45.5
11
25
21
45.5
0
LINE
8
0
10
25
20
45.5
11
25
21
59.5
0
LINE
8
0
10
25
20
59.5
11
11
21
59.5
0
LINE
8
0
10
11
20
59.5
11
11
21
45.5
0
LINE
8
0
10
29
20
14.875
11
43
21
14.875
0
LINE
8
0
10
43
20
14.875
11
43
21
28.875
0
LINE
8
0
10
43
20
28.875
11
29
21
28.875
0
LINE
8
0
10
29
20
28.875
11
29
21
14.875
0
LINE
8
0
10
29
20
32.375
11
43
21
32.375
0
LINE
8
0
10
43
20
32.375
11
43
21
46.375
0
LINE
8
0
10
43
20
46.375
11
29
21
46.375
0
LINE
8
0
10
29
20
46.375
11
29
21
32.375
0
LINE
8
0
10
29
20
49.875
11
43
21
49.875
0
LINE
8
0
10
43
20
49.875
11
43
21
63.875
0
LINE
8
0
10
43
20
63.875
11
29
21
63.875
0
LINE
8
0
10
29
20
63.875
11
29
21
49.875
0
LINE
8
0
10
47
20
10.5
11
61
21
10.5
0
LINE
8
0
10
61
20
10.5
11
61
21
24.5
0
LINE
8
0
10
61
20
24.5
11
47
21
24.5
0
LINE
8
0
10
47
20
24.5
11
47
21
10.5
0
LINE
8
0
10
47
20
28
11
61
21
28
0
LINE
8
0
10
61
20
28
11
61
21
42
0
LINE
8
0
10
61
20
42
11
47
21
42
0
LINE
8
0
10
47
20
42
11
47
21
28
0
LINE
8
0
10
47
20
45.5
11
61
21
45.5
0
LINE
8
0
10
61
20
45.5
11
61
21
59.5
0
LINE
8
0
10
61
20
59.5
11
47
21
59.5
0
LINE
8
0
10
47
20
59.5
11
47
21
45.5
0
LINE
8
0
10
65
20
6.125
11
79
21
6.125
0
LINE
8
0
10
79
20
6.125
11
79
21
20.125
0
LINE
8
0
10
79
20
20.125
11
65
21
20.125
0
LINE
8
0
10
65
20
20.125
11
65
21
6.125
0
LINE
8
0
10
65
20
23.625
11
79
21
23.625
0
LINE
8
0
10
79
20
23.625
11
79
21
37.625
0
LINE
8
0
10
79
20
37.625
11
65
21
37.625
0
LINE
8
0
10
65
20
37.625
11
65
21
23.625
0
LINE
8
0
10
65
20
41.125
11
79
21
41.125
0
LINE
8
0
10
79
20
41.125
11
79
21
55.125
0
LINE
8
0
10
79
20
55.125
11
65
21
55.125
0
LINE
8
0
10
65
20
55.125
11
65
21
41.125
0
LINE
8
0
10
29
20
-11.375
11
43
21
-11.375
0
LINE
8
0
10
43
20
-11.375
11
43
21
2.625
0
LINE
8
0
10
43
20
2.625
11
29
21
2.625
0
LINE
8
0
10
29
20
2.625
11
29
21
-11.375
0
LINE
8
0
10
47
20
-15.75
11
61
21
-15.75
0
LINE
8
0
10
61
20
-15.75
11
61
21
-1.75
0
LINE
8
0
10
61
20
-1.75
11
47
21
-1.75
0
LINE
8
0
10
47
20
-1.75
11
47
21
-15.75
0
LINE
8
0
10
65
20
-20.125
11
79
21
-20.125
0
LINE
8
0
10
79
20
-20.125
11
79
21
-6.125
0
LINE
8
0
10
79
20
-6.125
11
65
21
-6.125
0
LINE
8
0
10
65
20
-6.125
11
65
21
-20.125
0
ENDSEC
0
EOF