0
SECTION
2
HEADER
9
$INSUNITS
70
4
0
ENDSEC
0
SECTION
2
TABLES
0
TABLE
2
LTYPE
0
LTYPE
72
65
70
64
2
CONTINUOUS
3
______
73
0
40
0
0
ENDTAB
0
TABLE
2
LAYER
0
ENDTAB
0
ENDSEC
0
SECTION
2
ENTITIES
0
LINE
8
0
10
-9.75
20
-9.5
11
9.75
21
-9.5
0
LINE
8
0
10
9.75
20
-9.5
11
9.75
21
8
0
LINE
8
0
10
-9.75
20
-9.5
11
-9.75
21
44.5
0
LINE
8
0
10
8.25
20
44.5
11
-9.75
21
44.5
0
LINE
8
0
10
9.75
20
8
11
27.75
21
8
0
LINE
8
0
10
27.75
20
8
11
27.75
21
12.375
0
LINE
8
0
10
26.25
20
62
11
8.25
21
62
0
LINE
8
0
10
8.25
20
62
11
8.25
21
44.5
0
LINE
8
0
10
27.75
20
12.375
11
44.25
21
12.375
0
LINE
8
0
10
45.75
20
62
11
45.75
21
66.375
0
LINE
8
0
10
45.75
20
66.375
11
26.25
21
66.375
0
LINE
8
0
10
26.25
20
66.375
11
26.25
21
62
0
LINE
8
0
10
44.25
20
8
11
62.25
21
8
0
LINE
8
0
10
44.25
20
12.375
11
44.25
21
8
0
LINE
8
0
10
63.75
20
57.625
11
63.75
21
62
0
LINE
8
0
10
63.75
20
62
11
45.75
21
62
0
LINE
8
0
10
62.25
20
3.625
11
81.75
21
3.625
0
LINE
8
0
10
81.75
20
3.625
11
81.75
21
57.625
0
LINE
8
0
10
62.25
20
8
11
62.25
21
3.625
0
LINE
8
0
10
81.75
20
57.625
11
63.75
21
57.625
0
LINE
8
0
10
26.25
20
-13.875
11
44.25
21
-13.875
0
LINE
8
0
10
45.75
20
0.75
11
45.75
21
5.125
0
LINE
8
0
10
45.75
20
5.125
11
26.25
21
5.125
0
LINE
8
0
10
26.25
20
5.125
11
26.25
21
-13.875
0
LINE
8
0
10
44.25
20
-18.25
11
62.25
21
-18.25
0
LINE
8
0
10
63.75
20
-3.625
11
63.75
21
0.75
0
LINE
8
0
10
63.75
20
0.75
11
45.75
21
0.75
0
LINE
8
0
10
44.25
20
-13.875
11
44.25
21
-18.25
0
LINE
8
0
10
62.25
20
-22.625
11
81.75
21
-22.625
0
LINE
8
0
10
81.75
20
-22.625
11
81.75
21
-3.625
0
LINE
8
0
10
81.75
20
-3.625
11
63.75
21
-3.625
0
LINE
8
0
10
62.25
20
-18.25
11
62.25
21
-22.625
0
ENDSEC
0
EOF